<svg xmlns="http://www.w3.org/2000/svg" width="52.779" height="52.768" viewBox="0 0 52.779 52.768">
  <path id="Icon_awesome-instagram" data-name="Icon awesome-instagram" d="M26.39,15.093A13.529,13.529,0,1,0,39.919,28.621,13.508,13.508,0,0,0,26.39,15.093Zm0,22.324a8.8,8.8,0,1,1,8.8-8.8,8.812,8.812,0,0,1-8.8,8.8ZM43.628,14.539a3.156,3.156,0,1,1-3.156-3.156A3.148,3.148,0,0,1,43.628,14.539Zm8.96,3.2c-.2-4.227-1.166-7.971-4.262-11.056S41.5,2.635,37.27,2.423c-4.357-.247-17.415-.247-21.771,0-4.215.2-7.96,1.166-11.056,4.251S.392,13.5.18,17.73C-.067,22.087-.067,35.145.18,39.5c.2,4.227,1.166,7.971,4.262,11.056s6.829,4.05,11.056,4.262c4.357.247,17.415.247,21.771,0,4.227-.2,7.971-1.166,11.056-4.262s4.05-6.829,4.262-11.056c.247-4.357.247-17.4,0-21.759ZM46.96,44.176a8.9,8.9,0,0,1-5.016,5.016c-3.473,1.378-11.716,1.06-15.554,1.06s-12.092.306-15.554-1.06A8.9,8.9,0,0,1,5.82,44.176C4.443,40.7,4.76,32.46,4.76,28.621S4.454,16.529,5.82,13.067a8.9,8.9,0,0,1,5.016-5.016c3.473-1.378,11.716-1.06,15.554-1.06s12.092-.306,15.554,1.06a8.9,8.9,0,0,1,5.016,5.016c1.378,3.473,1.06,11.716,1.06,15.554S48.338,40.714,46.96,44.176Z" transform="translate(0.005 -2.238)" fill="#fcbf73"/>
</svg>
